{"title":"The One Warrior 2011 R5 XviD Feel-Free","uid":7008740,"size":1330154279,"categoryP":"video","categoryS":"movies","magnet":"?xt=urn:btih:38450a99508114601f2bb619227a454483cc880e&amp;dn=The+One+Warrior+2011+R5+XviD+Feel-Free&amp;tr=udp%3A%2F%2Ftracker.openbittorrent.com%3A80&amp;tr=udp%3A%2F%2Fopen.demonii.com%3A1337&amp;tr=udp%3A%2F%2Ftracker.coppersurfer.tk%3A6969&amp;tr=udp%3A%2F%2Fexodus.desync.com%3A6969","seeders":0,"leechers":0,"uploader":null,"files":9,"time":1328361520,"description":"Genre:Fantasy | Adventure\nLanguage:English\nIMDb:http://www.imdb.com/title/tt1623772/\nSource:DVD R5 Thanks!\nEncoder:Tony\n\nFormat : AVI\nFormat/Info : Audio Video Interleave\nFile size : 1.24 GiB\nDuration : 1h 26mn\nOverall bit rate : 2 047 Kbps\n\n\nVideo\nID : 0\nFormat : MPEG-4 Visual\nFormat profile : Advanced Simple@L5\nFormat settings, BVOP : 1\nFormat settings, QPel : No\nFormat settings, GMC : No warppoints\nFormat settings, Matrix : Default (H.263)\nCodec ID : XVID\nCodec ID/Hint : XviD\nDuration : 1h 26mn\nBit rate : 1 589 Kbps\nWidth : 640 pixels\nHeight : 360 pixels\nDisplay aspect ratio : 16:9\nFrame rate : 25.000 fps\nColor space : YUV\nChroma subsampling : 4:2:0\nBit depth : 8 bits\nScan type : Progressive\nCompression mode : Lossy\nBits/(Pixel*Frame) : 0.276\nStream size : 983 MiB (78%)\nWriting library : XviD 1.2.1 (UTC 2008-12-04)\n\nAudio\nID : 1\nFormat : AC-3\nFormat/Info : Audio Coding 3\nMode extension : CM (complete main)\nCodec ID : 2000\nDuration : 1h 26mn\nBit rate mode : Constant\nBit rate : 448 Kbps\nChannel(s) : 6 channels\nChannel positions : Front: L C R, Side: L R, LFE\nSampling rate : 48.0 KHz\nBit depth : 16 bits\nCompression mode : Lossy\nStream size : 277 MiB (22%)\nAlignment : Aligned on interleaves\nInterleave, duration : 40 ms (1.00 video frame)\nInterleave, preload duration : 512 ms\n\n\nPlot:\nThe One Warrior is a fantasy/action piece that is loosely based on video adventure games.\nIn our story, the character of The One Warrior finds himself in a mythical world where he\nmust destroy the Evil Lord Shoukata, but to do so he must first fight his way through many\nchallenges. These include dragons, the cursed swords of Damacleus, the Samurai Six, the\nAmazon Warriors, and much, much more. With each level he passes through, the more powerful\nhe becomes until the end where we realize it is really a man who may have been testing a\nnew video game.","torrent":{"xt":"urn:btih:38450a99508114601f2bb619227a454483cc880e","amp;dn":"The+One+Warrior+2011+R5+XviD+Feel-Free","amp;tr":["udp%3A%2F%2Ftracker.openbittorrent.com%3A80","udp%3A%2F%2Fopen.demonii.com%3A1337","udp%3A%2F%2Ftracker.coppersurfer.tk%3A6969","udp%3A%2F%2Fexodus.desync.com%3A6969"],"infoHash":"38450a99508114601f2bb619227a454483cc880e","infoHashBuffer":{"type":"Buffer","data":[56,69,10,153,80,129,20,96,31,43,182,25,34,122,69,68,131,204,136,14]},"announce":[],"urlList":[]}}